<?xml version="1.0"?>
<!DOCTYPE svg PUBLIC "-//W3C//DTD SVG 1.1//EN" "http://www.w3.org/Graphics/SVG/1.1/DTD/svg11.dtd">
<!--Phoronix Test Suite v9.6.1 [ http://www.phoronix-test-suite.com/ ]-->
<svg xmlns="http://www.w3.org/2000/svg" xmlns:xlink="http://www.w3.org/1999/xlink" version="1.1" font-family="sans-serif, droid-sans, helvetica, verdana, tahoma" viewbox="0 0 600 182" width="600" height="182" preserveAspectRatio="xMinYMin meet"><rect x="0" y="0" width="600" height="182" fill="#FEFEFE" stroke="#757575" stroke-width="2"/><g stroke="#757575" stroke-width="1"><line x1="105" y1="64" x2="105" y2="111"/><line x1="105" y1="110" x2="586" y2="110"/></g><a xlink:href="http://www.phoronix-test-suite.com/" xlink:show="new"><text x="585" y="59" font-size="8" fill="#065695" text-anchor="end" font-weight="bold" xlink:show="new">PHORONIX-TEST-SUITE.COM</text></a><polygon points="114,56 105,60.5 105,51.5" fill="#065695" stroke="#949494" stroke-width="1"/><text x="117" y="59" font-size="8" font-weight="bold" fill="#065695" text-anchor="start">Requests Per Second, More Is Better</text><a xlink:href="https://openbenchmarking.org/test/pts/redis-1.2.0" xlink:show="new"><text x="6" y="19" font-size="17" fill="#231f20" text-anchor="start" xlink:show="new" font-weight="bold">Redis v5.0.5</text></a><text x="6" y="36" font-size="11" font-weight="bold" fill="#231f20" text-anchor="start">Test: GET</text><a xlink:href="https://www.phoronix-test-suite.com/" xlink:show="new"><path d="m74 22v9m-5-16v16m-5-28v28m-23-2h12.5c2.485281 0 4.5-2.014719 4.5-4.5s-2.014719-4.5-4.5-4.5h-8c-2.485281 0-4.5-2.014719-4.5-4.5s2.014719-4.5 4.5-4.5h12.5m-21 5h-11m11 13h-2c-4.970563 0-9-4.029437-9-9v-20m-24 40v-20c0-4.970563 4.0294373-9 9-9 4.970563 0 9 4.029437 9 9s-4.029437 9-9 9h-9" stroke="#231f20" stroke-width="4" fill="none" xlink:show="new" transform="translate(508,4)"/></a><g font-size="11" fill="#231f20" font-weight="bold"><text x="100" y="85" text-anchor="end">TikTok Off</text></g><g font-size="10" fill="#065695" text-anchor="middle"><text x="187" y="125">700000</text><text x="267" y="125">1400000</text><text x="347" y="125">2100000</text><text x="427" y="125">2800000</text><text x="507" y="125">3500000</text></g><g stroke="#BABABA" stroke-width="1"><line x1="187" y1="64" x2="187" y2="105" stroke-dasharray="5,5"/><line x1="187" y1="106" x2="187" y2="115"/><line x1="267" y1="64" x2="267" y2="105" stroke-dasharray="5,5"/><line x1="267" y1="106" x2="267" y2="115"/><line x1="347" y1="64" x2="347" y2="105" stroke-dasharray="5,5"/><line x1="347" y1="106" x2="347" y2="115"/><line x1="427" y1="64" x2="427" y2="105" stroke-dasharray="5,5"/><line x1="427" y1="106" x2="427" y2="115"/><line x1="507" y1="64" x2="507" y2="105" stroke-dasharray="5,5"/><line x1="507" y1="106" x2="507" y2="115"/></g><g stroke="#949494" stroke-width="1"><rect x="105" y="70" height="34" width="359" fill="#065695"/></g><g font-size="8" fill="#065695" text-anchor="end"><text y="101" x="100">SE +/- 15045.44, N = 3</text></g><g font-size="10" fill="#FFFFFF" font-weight="bold" text-anchor="end"><text x="459" y="93">3144798.50</text></g><text x="5" y="150" font-size="8" fill="#231f20" text-anchor="start" xlink:title="-MM -MT -g3 -fvisibility=hidden -O3" width="595">1. (CXX) g++ options: -MM -MT -g3 -fvisibility=hidden -O3</text></svg>
