<?xml version="1.0"?>
<!DOCTYPE svg PUBLIC "-//W3C//DTD SVG 1.1//EN" "http://www.w3.org/Graphics/SVG/1.1/DTD/svg11.dtd">
<!--Phoronix Test Suite v9.6.1 [ http://www.phoronix-test-suite.com/ ]-->
<svg xmlns="http://www.w3.org/2000/svg" xmlns:xlink="http://www.w3.org/1999/xlink" version="1.1" font-family="sans-serif, droid-sans, helvetica, verdana, tahoma" viewbox="0 0 340 121" width="340" height="121" preserveAspectRatio="xMinYMin meet"><rect x="0" y="0" width="340" height="121" fill="#FEFEFE" stroke="#757575" stroke-width="2"/><rect x="1" y="1" width="339" height="120" fill="#FEFEFE" stroke="#757575" stroke-width="1"/><path d="m74 22v9m-5-16v16m-5-28v28m-23-2h12.5c2.485281 0 4.5-2.014719 4.5-4.5s-2.014719-4.5-4.5-4.5h-8c-2.485281 0-4.5-2.014719-4.5-4.5s2.014719-4.5 4.5-4.5h12.5m-21 5h-11m11 13h-2c-4.970563 0-9-4.029437-9-9v-20m-24 40v-20c0-4.970563 4.0294373-9 9-9 4.970563 0 9 4.029437 9 9s-4.029437 9-9 9h-9" stroke="#000000" stroke-width="4" fill="none" transform="translate(78,28)"/><line x1="236" y1="65" x2="340" y2="65" stroke="#BABABA" stroke-width="80" stroke-dasharray="104,104"/><line x1="170" y1="73" x2="170" y2="105" stroke="#949494" stroke-width="340" stroke-dasharray="16,16"/><line x1="236" y1="65" x2="340" y2="65" stroke="#757575" stroke-width="80" stroke-dasharray="1,103"/><rect x="1" y="1" width="338" height="25" fill="#231f20"/><text x="5" y="19" font-size="17" fill="#FEFEFE" text-anchor="start">nosleep-tiktok-noprot</text><line x1="1" y1="25" x2="339" y2="25" stroke="#757575" stroke-width="1"/><g font-size="10" font-weight="bold" fill="#065695" text-anchor="end"><a xlink:href="https://openbenchmarking.org/test/pts/nginx-1.2.2" xlink:show="new"><text x="234" y="85">nginx: Static Web Page Serving</text></a><a xlink:href="https://openbenchmarking.org/test/pts/apache-1.7.2" xlink:show="new"><text x="234" y="101">apache: Static Web Page Serving</text></a></g><g font-size="10" fill="#065695" font-weight="bold" text-anchor="middle" dominant-baseline="text-before-edge"><text x="288" y="49">TikTok NoProt</text></g><g fill="#BABABA"/><g text-anchor="middle" font-size="10" fill="#065695"><text x="288" y="86" xlink:title="STD Dev: 0.62%;  STD Error: 153.64">42659.63</text><text x="288" y="102" xlink:title="STD Dev: 3.32%;  STD Error: 453.04">40954.44</text></g><line x1="170" y1="73" x2="170" y2="105" stroke="#949494" stroke-width="340" stroke-dasharray="1,15"/><rect x="0" y="105" width="340" height="16" fill="#231f20"/><a xlink:href="http://www.phoronix-test-suite.com/" xlink:show="new"><text x="338" y="118" font-size="10" fill="#FFFFFF" text-anchor="end" xlink:show="new">PHORONIX-TEST-SUITE.COM</text></a></svg>
