<?xml version="1.0"?>
<!DOCTYPE svg PUBLIC "-//W3C//DTD SVG 1.1//EN" "http://www.w3.org/Graphics/SVG/1.1/DTD/svg11.dtd">
<!--Phoronix Test Suite v9.6.1 [ http://www.phoronix-test-suite.com/ ]-->
<svg xmlns="http://www.w3.org/2000/svg" xmlns:xlink="http://www.w3.org/1999/xlink" version="1.1" font-family="sans-serif, droid-sans, helvetica, verdana, tahoma" viewbox="0 0 675 447" width="675" height="447" preserveAspectRatio="xMinYMin meet"><rect x="0" y="0" width="675" height="447" fill="#FEFEFE" stroke="#757575" stroke-width="2"/><rect x="2" y="1" width="672" height="38" fill="#231f20" stroke="#757575" stroke-width="1"/><text x="337.5" y="19" font-size="17" fill="#FEFEFE" text-anchor="middle" font-weight="bold">nosleep-full2-tiktok</text><a xlink:href="http://www.phoronix-test-suite.com/" xlink:show="new"><text x="4" y="36" font-size="8" fill="#FEFEFE" text-anchor="start" xlink:show="new" font-weight="bold">PHORONIX-TEST-SUITE.COM</text></a><a xlink:href="https://www.phoronix-test-suite.com/" xlink:show="new"><text x="671" y="36" font-size="8" fill="#FEFEFE" text-anchor="end" xlink:show="new" font-weight="bold">Phoronix Test Suite 9.6.1</text></a><g fill="#949494"><rect x="0" y="55" width="675" height="16"/><rect x="0" y="87" width="675" height="16"/><rect x="0" y="119" width="675" height="16"/><rect x="0" y="151" width="675" height="16"/><rect x="0" y="183" width="675" height="16"/><rect x="0" y="215" width="675" height="16"/><rect x="0" y="247" width="675" height="16"/></g><g fill="none" stroke-width="1" stroke="#005a00"/><g font-size="10" fill="#065695" text-anchor="middle" font-weight="bold"><a xlink:href="http://openbenchmarking.org/s/Intel Core i7-9700 @ 4.70GHz (8 Cores)" xlink:show="new"><text x="337.5" y="52" xlink:title="Processor: Intel Core i7-9700 @ 4.70GHz (8 Cores)">Intel Core i7-9700 @ 4.70GHz (8 Cores)</text></a><a xlink:href="http://openbenchmarking.org/s/Dell 0YNVJG (1.0.3 BIOS)" xlink:show="new"><text x="337.5" y="68" xlink:title="Motherboard: Dell 0YNVJG (1.0.3 BIOS)">Dell 0YNVJG (1.0.3 BIOS)</text></a><a xlink:href="http://openbenchmarking.org/s/Intel Cannon Lake PCH" xlink:show="new"><text x="337.5" y="84" xlink:title="Chipset: Intel Cannon Lake PCH">Intel Cannon Lake PCH</text></a><a xlink:href="http://openbenchmarking.org/s/16GB" xlink:show="new"><text x="337.5" y="100" xlink:title="Memory: 16GB">16GB</text></a><a xlink:href="http://openbenchmarking.org/s/KBG40ZNS256G NVMe TOSHIBA 256GB + 1000GB Seagate ST1000DM010-2EP1 + 1000GB Transcend" xlink:show="new"><text x="337.5" y="116" xlink:title="Disk: KBG40ZNS256G NVMe TOSHIBA 256GB + 1000GB Seagate ST1000DM010-2EP1 + 1000GB Transcend">KBG40ZNS256G NVMe TOSHIBA 256GB + 1000GB Seagate ST1000DM010-2EP1 + 1000GB Transcend</text></a><a xlink:href="http://openbenchmarking.org/s/i915drmfb (1200MHz)" xlink:show="new"><text x="337.5" y="132" xlink:title="Graphics: i915drmfb (1200MHz)">i915drmfb (1200MHz)</text></a><a xlink:href="http://openbenchmarking.org/s/Realtek ALC3234" xlink:show="new"><text x="337.5" y="148" xlink:title="Audio: Realtek ALC3234">Realtek ALC3234</text></a><a xlink:href="http://openbenchmarking.org/s/DELL U2417H" xlink:show="new"><text x="337.5" y="164" xlink:title="Monitor: DELL U2417H">DELL U2417H</text></a><a xlink:href="http://openbenchmarking.org/s/Intel I219-LM" xlink:show="new"><text x="337.5" y="180" xlink:title="Network: Intel I219-LM">Intel I219-LM</text></a><a xlink:href="http://openbenchmarking.org/s/Ubuntu 18.04" xlink:show="new"><text x="337.5" y="196" xlink:title="OS: Ubuntu 18.04">Ubuntu 18.04</text></a><a xlink:href="http://openbenchmarking.org/s/5.4.0-rc3+ (x86_64) 20200805" xlink:show="new"><text x="337.5" y="212" xlink:title="Kernel: 5.4.0-rc3+ (x86_64) 20200805">5.4.0-rc3+ (x86_64) 20200805</text></a><a xlink:href="http://openbenchmarking.org/s/GCC 7.5.0" xlink:show="new"><text x="337.5" y="228" xlink:title="Compiler: GCC 7.5.0">GCC 7.5.0</text></a><a xlink:href="http://openbenchmarking.org/s/ext4" xlink:show="new"><text x="337.5" y="244" xlink:title="File-System: ext4">ext4</text></a><a xlink:href="http://openbenchmarking.org/s/1920x1080" xlink:show="new"><text x="337.5" y="260" xlink:title="Screen Resolution: 1920x1080">1920x1080</text></a></g><g font-size="7" fill="#065695" text-anchor="end"><text x="671" y="48">Processor</text><text x="671" y="64">Motherboard</text><text x="671" y="80">Chipset</text><text x="671" y="96">Memory</text><text x="671" y="112">Disk</text><text x="671" y="128">Graphics</text><text x="671" y="144">Audio</text><text x="671" y="160">Monitor</text><text x="671" y="176">Network</text><text x="671" y="192">OS</text><text x="671" y="208">Kernel</text><text x="671" y="224">Compiler</text><text x="671" y="240">File-System</text><text x="671" y="256">Screen Resolution</text></g><g stroke="#757575" stroke-width="1"><line x1="0" y1="39" x2="675" y2="39"/><line x1="0" y1="55" x2="675" y2="55"/><line x1="0" y1="71" x2="675" y2="71"/><line x1="0" y1="87" x2="675" y2="87"/><line x1="0" y1="103" x2="675" y2="103"/><line x1="0" y1="119" x2="675" y2="119"/><line x1="0" y1="135" x2="675" y2="135"/><line x1="0" y1="151" x2="675" y2="151"/><line x1="0" y1="167" x2="675" y2="167"/><line x1="0" y1="183" x2="675" y2="183"/><line x1="0" y1="199" x2="675" y2="199"/><line x1="0" y1="215" x2="675" y2="215"/><line x1="0" y1="231" x2="675" y2="231"/><line x1="0" y1="247" x2="675" y2="247"/></g><rect x="1" y="263" width="673" height="184" fill="#FEFEFE"/><text x="4" y="284" font-size="9" fill="#231f20" text-anchor="start" xlink:title=""><tspan x="4" y="284" dx="0" dy="0">- --build=x86_64-linux-gnu --disable-vtable-verify --disable-werror --enable-bootstrap --enable-checking=release</tspan><tspan x="4" y="284" dx="5" dy="10"> --enable-clocale=gnu --enable-default-pie --enable-gnu-unique-object</tspan><tspan x="4" y="284" dx="5" dy="20"> --enable-languages=c,ada,c++,go,brig,d,fortran,objc,obj-c++ --enable-libmpx --enable-libstdcxx-debug</tspan><tspan x="4" y="284" dx="5" dy="30"> --enable-libstdcxx-time=yes --enable-multiarch --enable-multilib --enable-nls --enable-objc-gc=auto</tspan><tspan x="4" y="284" dx="5" dy="40"> --enable-offload-targets=nvptx-none --enable-plugin --enable-shared --enable-threads=posix --host=x86_64-linux-gnu</tspan><tspan x="4" y="284" dx="5" dy="50"> --program-prefix=x86_64-linux-gnu- --target=x86_64-linux-gnu --with-abi=m64 --with-arch-32=i686</tspan><tspan x="4" y="284" dx="5" dy="60"> --with-default-libstdcxx-abi=new --with-gcc-major-version-only --with-multilib-list=m32,m64,mx32</tspan><tspan x="4" y="284" dx="5" dy="70"> --with-target-system-zlib --with-tune=generic --without-cuda-driver -v </tspan></text><text x="4" y="372" font-size="9" fill="#231f20" text-anchor="start" width="671">- Scaling Governor: intel_pstate performance - CPU Microcode: 0xd6</text><text x="4" y="384" font-size="9" fill="#231f20" text-anchor="start" width="671">- Python 2.7.17 + Python 3.6.9</text><text x="4" y="396" font-size="9" fill="#231f20" text-anchor="start" xlink:title=""><tspan x="4" y="396" dx="0" dy="0">- l1tf: Not affected + mds: Not affected + meltdown: Not affected + spec_store_bypass: Mitigation of SSB disabled via</tspan><tspan x="4" y="396" dx="5" dy="10"> prctl and seccomp + spectre_v1: Mitigation of usercopy/swapgs barriers and __user pointer sanitization + spectre_v2:</tspan><tspan x="4" y="396" dx="5" dy="20"> Mitigation of Enhanced IBRS IBPB: conditional RSB filling </tspan></text></svg>
