<?xml version="1.0"?>
<!DOCTYPE svg PUBLIC "-//W3C//DTD SVG 1.1//EN" "http://www.w3.org/Graphics/SVG/1.1/DTD/svg11.dtd">
<!--Phoronix Test Suite v9.6.1 [ http://www.phoronix-test-suite.com/ ]-->
<svg xmlns="http://www.w3.org/2000/svg" xmlns:xlink="http://www.w3.org/1999/xlink" version="1.1" font-family="sans-serif, droid-sans, helvetica, verdana, tahoma" viewbox="0 0 600 182" width="600" height="182" preserveAspectRatio="xMinYMin meet"><rect x="0" y="0" width="600" height="182" fill="#FEFEFE" stroke="#757575" stroke-width="2"/><g stroke="#757575" stroke-width="1"><line x1="117" y1="64" x2="117" y2="111"/><line x1="117" y1="110" x2="586" y2="110"/></g><a xlink:href="http://www.phoronix-test-suite.com/" xlink:show="new"><text x="585" y="59" font-size="8" fill="#065695" text-anchor="end" font-weight="bold" xlink:show="new">PHORONIX-TEST-SUITE.COM</text></a><polygon points="126,56 117,60.5 117,51.5" fill="#065695" stroke="#949494" stroke-width="1"/><text x="129" y="59" font-size="8" font-weight="bold" fill="#065695" text-anchor="start">Requests Per Second, More Is Better</text><a xlink:href="https://openbenchmarking.org/test/pts/apache-1.7.2" xlink:show="new"><text x="6" y="19" font-size="17" fill="#231f20" text-anchor="start" xlink:show="new" font-weight="bold">Apache Benchmark v2.4.29</text></a><text x="6" y="36" font-size="11" font-weight="bold" fill="#231f20" text-anchor="start">Static Web Page Serving</text><a xlink:href="https://www.phoronix-test-suite.com/" xlink:show="new"><path d="m74 22v9m-5-16v16m-5-28v28m-23-2h12.5c2.485281 0 4.5-2.014719 4.5-4.5s-2.014719-4.5-4.5-4.5h-8c-2.485281 0-4.5-2.014719-4.5-4.5s2.014719-4.5 4.5-4.5h12.5m-21 5h-11m11 13h-2c-4.970563 0-9-4.029437-9-9v-20m-24 40v-20c0-4.970563 4.0294373-9 9-9 4.970563 0 9 4.029437 9 9s-4.029437 9-9 9h-9" stroke="#231f20" stroke-width="4" fill="none" xlink:show="new" transform="translate(508,4)"/></a><g font-size="11" fill="#231f20" font-weight="bold"><text x="112" y="85" text-anchor="end">TikTok Partial</text></g><g font-size="10" fill="#065695" text-anchor="middle"><text x="197" y="125">8000</text><text x="275" y="125">16000</text><text x="353" y="125">24000</text><text x="431" y="125">32000</text><text x="509" y="125">40000</text></g><g stroke="#BABABA" stroke-width="1"><line x1="197" y1="64" x2="197" y2="105" stroke-dasharray="5,5"/><line x1="197" y1="106" x2="197" y2="115"/><line x1="275" y1="64" x2="275" y2="105" stroke-dasharray="5,5"/><line x1="275" y1="106" x2="275" y2="115"/><line x1="353" y1="64" x2="353" y2="105" stroke-dasharray="5,5"/><line x1="353" y1="106" x2="353" y2="115"/><line x1="431" y1="64" x2="431" y2="105" stroke-dasharray="5,5"/><line x1="431" y1="106" x2="431" y2="115"/><line x1="509" y1="64" x2="509" y2="105" stroke-dasharray="5,5"/><line x1="509" y1="106" x2="509" y2="115"/></g><g stroke="#949494" stroke-width="1"><rect x="117" y="70" height="34" width="345" fill="#065695"/></g><g font-size="8" fill="#065695" text-anchor="end"><text y="101" x="112">SE +/- 184.26, N = 3</text></g><g font-size="10" fill="#FFFFFF" font-weight="bold" text-anchor="end"><text x="457" y="93">35416.45</text></g><text x="5" y="150" font-size="8" fill="#231f20" text-anchor="start" xlink:title="-shared -fPIC -O2 -pthread" width="595">1. (CC) gcc options: -shared -fPIC -O2 -pthread</text></svg>
