<?xml version="1.0"?>
<!DOCTYPE svg PUBLIC "-//W3C//DTD SVG 1.1//EN" "http://www.w3.org/Graphics/SVG/1.1/DTD/svg11.dtd">
<!--Phoronix Test Suite v9.6.1 [ http://www.phoronix-test-suite.com/ ]-->
<svg xmlns="http://www.w3.org/2000/svg" xmlns:xlink="http://www.w3.org/1999/xlink" version="1.1" font-family="sans-serif, droid-sans, helvetica, verdana, tahoma" viewbox="0 0 418 233" width="418" height="233" preserveAspectRatio="xMinYMin meet"><rect x="0" y="0" width="418" height="233" fill="#FEFEFE" stroke="#757575" stroke-width="2"/><rect x="1" y="1" width="417" height="232" fill="#FEFEFE" stroke="#757575" stroke-width="1"/><path d="m74 22v9m-5-16v16m-5-28v28m-23-2h12.5c2.485281 0 4.5-2.014719 4.5-4.5s-2.014719-4.5-4.5-4.5h-8c-2.485281 0-4.5-2.014719-4.5-4.5s2.014719-4.5 4.5-4.5h12.5m-21 5h-11m11 13h-2c-4.970563 0-9-4.029437-9-9v-20m-24 40v-20c0-4.970563 4.0294373-9 9-9 4.970563 0 9 4.029437 9 9s-4.029437 9-9 9h-9" stroke="#000000" stroke-width="4" fill="none" transform="translate(114,28)"/><line x1="307" y1="121" x2="418" y2="121" stroke="#BABABA" stroke-width="192" stroke-dasharray="111,111"/><line x1="209" y1="73" x2="209" y2="217" stroke="#949494" stroke-width="418" stroke-dasharray="16,16"/><line x1="307" y1="121" x2="418" y2="121" stroke="#757575" stroke-width="192" stroke-dasharray="1,110"/><rect x="1" y="1" width="416" height="25" fill="#231f20"/><text x="5" y="19" font-size="17" fill="#FEFEFE" text-anchor="start">nosleep-par-tiktok</text><line x1="1" y1="25" x2="417" y2="25" stroke="#757575" stroke-width="1"/><g font-size="10" font-weight="bold" fill="#065695" text-anchor="end"><a xlink:href="https://openbenchmarking.org/test/pts/ipc-benchmark-1.0.0" xlink:show="new"><text x="305" y="85">ipc-benchmark: TCP Socket - 128</text></a><a xlink:href="https://openbenchmarking.org/test/pts/build-linux-kernel-1.10.1" xlink:show="new"><text x="305" y="101">build-linux-kernel: Time To Compile</text></a><a xlink:href="https://openbenchmarking.org/test/pts/openssl-1.11.0" xlink:show="new"><text x="305" y="117">openssl: RSA 4096-bit Performance</text></a><a xlink:href="https://openbenchmarking.org/test/pts/redis-1.2.0" xlink:show="new"><text x="305" y="133">redis: GET</text></a><a xlink:href="https://openbenchmarking.org/test/pts/redis-1.2.0" xlink:show="new"><text x="305" y="149">redis: SET</text></a><a xlink:href="https://openbenchmarking.org/test/pts/pybench-1.1.3" xlink:show="new"><text x="305" y="165">pybench: Total For Average Test Times</text></a><a xlink:href="https://openbenchmarking.org/test/pts/nginx-1.2.2" xlink:show="new"><text x="305" y="181">nginx: Static Web Page Serving</text></a><a xlink:href="https://openbenchmarking.org/test/pts/apache-1.7.2" xlink:show="new"><text x="305" y="197">apache: Static Web Page Serving</text></a><a xlink:href="https://openbenchmarking.org/test/pts/git-1.1.0" xlink:show="new"><text x="305" y="213">git: Time To Complete Common Git Commands</text></a></g><g font-size="10" fill="#065695" font-weight="bold" text-anchor="middle" dominant-baseline="text-before-edge"><text x="363" y="49">TikTok Partial</text></g><g fill="#BABABA"/><g text-anchor="middle" font-size="10" fill="#065695"><text x="363" y="86" xlink:title="STD Dev: 0.03%;  STD Error: 635.34">3619155</text><text x="363" y="102" xlink:title="STD Dev: 2.91%;  STD Error: 1.86">110.899</text><text x="363" y="118" xlink:title="STD Dev: 1.12%;  STD Error: 14.69">2269.2</text><text x="363" y="134">3125000</text><text x="363" y="150" xlink:title="STD Dev: 0.37%;  STD Error: 5231.86">2437065.58</text><text x="363" y="166">996</text><text x="363" y="182" xlink:title="STD Dev: 0.47%;  STD Error: 102.58">37796.34</text><text x="363" y="198" xlink:title="STD Dev: 0.90%;  STD Error: 184.26">35416.45</text><text x="363" y="214" xlink:title="STD Dev: 1.38%;  STD Error: 0.39">48.623</text></g><line x1="209" y1="73" x2="209" y2="217" stroke="#949494" stroke-width="418" stroke-dasharray="1,15"/><rect x="0" y="217" width="418" height="16" fill="#231f20"/><a xlink:href="http://www.phoronix-test-suite.com/" xlink:show="new"><text x="416" y="230" font-size="10" fill="#FFFFFF" text-anchor="end" xlink:show="new">PHORONIX-TEST-SUITE.COM</text></a></svg>
